<svg xmlns="http://www.w3.org/2000/svg" viewBox="0 0 18 18">
  <path d="M80.561,64H65.538A1.468,1.468,0,0,0,64,65.4V80.457A1.584,1.584,0,0,0,65.538,82H80.556A1.5,1.5,0,0,0,82,80.457V65.4A1.38,1.38,0,0,0,80.561,64ZM69.58,79H67V70.986H69.58Zm-1.2-9.237h-.019a1.4,1.4,0,1,1,.019,0ZM79,79H76.425V74.62c0-1.05-.375-1.768-1.308-1.768a1.411,1.411,0,0,0-1.322.952,1.736,1.736,0,0,0-.089.633V79H71.127V70.986h2.579V72.1a2.61,2.61,0,0,1,2.326-1.3C77.724,70.8,79,71.915,79,74.32Z" transform="translate(-64 -64)"/>
</svg>
