<?xml version="1.0" encoding="UTF-8" standalone="no"?>
<svg xmlns:dc="http://purl.org/dc/elements/1.1/" xmlns:cc="http://creativecommons.org/ns#" xmlns:rdf="http://www.w3.org/1999/02/22-rdf-syntax-ns#" xmlns:svg="http://www.w3.org/2000/svg" xmlns="http://www.w3.org/2000/svg" viewBox="0 0 209.60214 209.73245" version="1.1" id="svg8">
	<g id="layer1" transform="translate(98.106178,-86.600882)">
		<g clip-path="url(#clip0-8)" transform="matrix(0.26458333,0,0,0.26458333,-121.77876,72.469783)" id="g79">
			<path d="m 533.334,576 v -23.659 c 0,-28.588 31.102,-55.628 51.277,-74.92 C 613.051,450.242 628,413.729 628,370.955 628,292.091 565.156,229 486.001,229 c -78.207,-0.218 -141.782,62.984 -142,141.165 -10e-4,0.263 -10e-4,0.527 0,0.79 0,41.246 15.59,80.234 43.389,106.466 20.067,18.937 51.277,46.036 51.277,74.92 V 576" stroke="#1a759f" stroke-width="21.6667" stroke-linecap="round" stroke-linejoin="round" stroke-miterlimit="10" fill="none" fill-rule="evenodd" id="path61" />
			<path d="m 454,670 h 63" stroke="#87b4d5" stroke-width="21.6667" stroke-linecap="round" stroke-linejoin="round" stroke-miterlimit="10" fill="none" fill-rule="evenodd" id="path63" />
			<path d="m 438,623 h 95" stroke="#168aad" stroke-width="21.6667" stroke-linecap="round" stroke-linejoin="round" stroke-miterlimit="10" fill="none" fill-rule="evenodd" id="path65" />
			<path d="M 486,576 V 450" stroke="#f9b018" stroke-width="21.6667" stroke-linecap="round" stroke-linejoin="round" stroke-miterlimit="10" fill="none" fill-rule="evenodd" id="path67" />
			<path d="m 523,434 c 0,0 -21.227,16 -37.5,16 -16.273,0 -37.5,-16 -37.5,-16" stroke="#ffd966" stroke-width="21.6667" stroke-linecap="round" stroke-linejoin="round" stroke-miterlimit="10" fill="none" fill-rule="evenodd" id="path69" />
			<path d="M 0,457.791 C 0,204.96 134.187,0 299.715,0 465.243,0 599.43,204.96 599.43,457.791 c 0,252.831 -134.187,457.79 -299.715,457.79 C 134.187,915.581 0,710.622 0,457.791 Z" stroke="#1a759f" stroke-width="18.3333" stroke-miterlimit="8" fill="none" fill-rule="evenodd" transform="matrix(-0.707107,0.707107,0.707107,0.707107,373.793,-85.6373)" id="path71" />
			<path d="M 273.639,237.577 C 452.418,58.7982 692.231,8.75416 809.277,125.8 926.323,242.846 876.279,482.659 697.5,661.437 518.722,840.216 278.909,890.26 161.863,773.214 44.8168,656.168 94.8609,416.355 273.639,237.577 Z" stroke="#1a759f" stroke-width="18.3333" stroke-miterlimit="8" fill="none" fill-rule="evenodd" id="path73" />
			<path d="m 603.5,203.5 c 0,-33.137 26.863,-60 60,-60 33.137,0 60,26.863 60,60 0,33.137 -26.863,60 -60,60 -33.137,0 -60,-26.863 -60,-60 z" stroke="#1a759f" stroke-width="15" stroke-miterlimit="8" fill="#ffffff" fill-rule="evenodd" id="path75" />
			<path d="m 192.5,651.5 c 0,-33.137 26.863,-60 60,-60 33.137,0 60,26.863 60,60 0,33.137 -26.863,60 -60,60 -33.137,0 -60,-26.863 -60,-60 z" stroke="#1a759f" stroke-width="15" stroke-miterlimit="8" fill="#ffffff" fill-rule="evenodd" id="path77" />
		</g>
	</g>
</svg>
