<?xml version="1.0" encoding="UTF-8" standalone="no"?>
<svg xmlns:dc="http://purl.org/dc/elements/1.1/" xmlns:cc="http://creativecommons.org/ns#" xmlns:rdf="http://www.w3.org/1999/02/22-rdf-syntax-ns#" xmlns:svg="http://www.w3.org/2000/svg" xmlns="http://www.w3.org/2000/svg" viewBox="0 0 951.85278 209.73245" version="1.1" id="svg8">
	<g id="layer1" transform="translate(348.17044,-50.859965)">
		<g clip-path="url(#clip0)" transform="matrix(0.26458333,0,0,0.26458333,-371.84302,36.728866)" id="g35">
			<path d="m 533.334,576 v -23.659 c 0,-28.588 31.102,-55.628 51.277,-74.92 C 613.051,450.242 628,413.729 628,370.955 628,292.091 565.156,229 486.001,229 c -78.207,-0.218 -141.782,62.984 -142,141.165 -10e-4,0.263 -10e-4,0.527 0,0.79 0,41.246 15.59,80.234 43.389,106.466 20.067,18.937 51.277,46.036 51.277,74.92 V 576" stroke="#1a759f" stroke-width="21.6667" stroke-linecap="round" stroke-linejoin="round" stroke-miterlimit="10" fill="none" fill-rule="evenodd" id="path15" />
			<path d="m 454,670 h 63" stroke="#87b4d5" stroke-width="21.6667" stroke-linecap="round" stroke-linejoin="round" stroke-miterlimit="10" fill="none" fill-rule="evenodd" id="path17" />
			<path d="m 438,623 h 95" stroke="#168aad" stroke-width="21.6667" stroke-linecap="round" stroke-linejoin="round" stroke-miterlimit="10" fill="none" fill-rule="evenodd" id="path19" />
			<path d="M 486,576 V 450" stroke="#f9b018" stroke-width="21.6667" stroke-linecap="round" stroke-linejoin="round" stroke-miterlimit="10" fill="none" fill-rule="evenodd" id="path21" />
			<path d="m 523,434 c 0,0 -21.227,16 -37.5,16 -16.273,0 -37.5,-16 -37.5,-16" stroke="#ffd966" stroke-width="21.6667" stroke-linecap="round" stroke-linejoin="round" stroke-miterlimit="10" fill="none" fill-rule="evenodd" id="path23" />
			<path d="M 0,457.791 C 0,204.96 134.187,0 299.715,0 465.243,0 599.43,204.96 599.43,457.791 c 0,252.831 -134.187,457.79 -299.715,457.79 C 134.187,915.581 0,710.622 0,457.791 Z" stroke="#1a759f" stroke-width="18.3333" stroke-miterlimit="8" fill="none" fill-rule="evenodd" transform="matrix(-0.707107,0.707107,0.707107,0.707107,373.793,-85.6373)" id="path25" />
			<path d="M 273.639,237.577 C 452.418,58.7982 692.231,8.75416 809.277,125.8 926.323,242.846 876.279,482.659 697.5,661.437 518.722,840.216 278.909,890.26 161.863,773.214 44.8168,656.168 94.8609,416.355 273.639,237.577 Z" stroke="#1a759f" stroke-width="18.3333" stroke-miterlimit="8" fill="none" fill-rule="evenodd" id="path27" />
			<g aria-label="RB Technology" transform="translate(994.56,590)" id="text29" style="font-weight:700;font-size:398px;font-family:Gilroy-Bold, Gilroy-Bold_MSFontService, sans-serif;fill:#343f55">
				<path d="M 178.702,0 122.584,-96.714 H 80.794 V 0 H 25.87 v -278.6 h 111.44 q 38.606,0 65.67,27.064 27.064,27.064 27.064,65.272 0,25.87 -14.726,48.158 -14.726,21.89 -39.004,33.034 L 238.004,0 Z M 80.794,-227.258 v 82.386 h 56.516 q 15.522,0 26.666,-11.94 11.144,-12.338 11.144,-29.452 0,-17.114 -11.144,-29.054 -11.144,-11.94 -26.666,-11.94 z" style="font-weight:700;font-size:398px;font-family:Gilroy-Bold, Gilroy-Bold_MSFontService, sans-serif;fill:#343f55" id="path56" />
				<path d="m 438.59537,-144.474 q 36.616,21.094 36.616,63.68 0,35.422 -25.074,58.108 Q 425.06337,0 388.44737,0 h -118.206 v -278.6 h 109.848 q 35.82,0 60.098,22.288 24.676,21.89 24.676,56.118 0,34.626 -26.268,55.72 z m -58.506,-82.784 h -54.924 v 61.292 h 54.924 q 12.736,0 21.094,-8.756 8.756,-8.756 8.756,-21.89 0,-13.134 -8.358,-21.89 -8.358,-8.756 -21.492,-8.756 z m 8.358,175.916 q 13.93,0 23.084,-9.154 9.154,-9.552 9.154,-23.88 0,-13.93 -9.154,-23.084 -9.154,-9.552 -23.084,-9.552 h -63.282 v 65.67 z" style="font-weight:700;font-size:398px;font-family:Gilroy-Bold, Gilroy-Bold_MSFontService, sans-serif;fill:#343f55" id="path58" />
				<path d="m 794.8044,-278.6 v 52.536 h -75.222 V 0 h -54.924 v -226.064 h -74.824 V -278.6 Z" style="font-weight:700;font-size:398px;font-family:Gilroy-Bold, Gilroy-Bold_MSFontService, sans-serif;fill:#343f55" id="path60" />
				<path d="m 830.22545,-78.406 q 10.348,37.412 56.118,37.412 29.452,0 44.576,-19.9 l 41.392,23.88 q -29.452,42.586 -86.764,42.586 -49.352,0 -79.202,-29.85 -29.85,-29.85 -29.85,-75.222 0,-44.974 29.452,-74.824 29.452,-30.248 75.62,-30.248 43.78,0 72.038,30.248 28.656,30.248 28.656,74.824 0,9.95 -1.99,21.094 z m -0.796,-39.8 h 101.49 q -4.378,-20.298 -18.308,-30.248 -13.532,-9.95 -31.044,-9.95 -20.696,0 -34.228,10.746 -13.532,10.348 -17.91,29.452 z" style="font-weight:700;font-size:398px;font-family:Gilroy-Bold, Gilroy-Bold_MSFontService, sans-serif;fill:#343f55" id="path62" />
				<path d="m 1111.2125,5.572 q -44.974,0 -75.222,-30.248 -29.85,-30.248 -29.85,-74.824 0,-44.576 29.85,-74.824 30.248,-30.248 75.222,-30.248 29.054,0 52.934,13.93 23.88,13.93 36.218,37.412 l -44.178,25.87 q -5.97,-12.338 -18.308,-19.502 -11.94,-7.164 -27.064,-7.164 -23.084,0 -38.208,15.522 -15.124,15.124 -15.124,39.004 0,23.482 15.124,39.004 15.124,15.124 38.208,15.124 15.522,0 27.462,-6.766 12.338,-7.164 18.308,-19.502 l 44.576,25.472 q -13.134,23.482 -37.014,37.81 -23.88,13.93 -52.934,13.93 z" style="font-weight:700;font-size:398px;font-family:Gilroy-Bold, Gilroy-Bold_MSFontService, sans-serif;fill:#343f55" id="path64" />
				<path d="m 1338.8676,-204.572 q 32.636,0 53.73,21.89 21.492,21.89 21.492,60.496 V 0 h -51.342 v -115.818 q 0,-19.9 -10.746,-30.248 -10.746,-10.746 -28.656,-10.746 -19.9,0 -31.84,12.338 -11.94,12.338 -11.94,37.014 V 0 h -51.342 v -278.6 h 51.342 v 101.888 q 18.706,-27.86 59.302,-27.86 z" style="font-weight:700;font-size:398px;font-family:Gilroy-Bold, Gilroy-Bold_MSFontService, sans-serif;fill:#343f55" id="path66" />
				<path d="m 1568.5135,-204.572 q 32.636,0 53.73,21.89 21.492,21.89 21.492,60.496 V 0 h -51.342 v -115.818 q 0,-19.9 -10.746,-30.248 -10.746,-10.746 -28.656,-10.746 -19.9,0 -31.84,12.338 -11.94,12.338 -11.94,37.014 V 0 h -51.342 v -199 h 51.342 v 22.288 q 18.706,-27.86 59.302,-27.86 z" style="font-weight:700;font-size:398px;font-family:Gilroy-Bold, Gilroy-Bold_MSFontService, sans-serif;fill:#343f55" id="path68" />
				<path d="m 1857.0633,-24.676 q -30.646,30.248 -74.824,30.248 -44.178,0 -74.824,-30.248 -30.248,-30.646 -30.248,-74.824 0,-44.178 30.248,-74.426 30.646,-30.646 74.824,-30.646 44.178,0 74.824,30.646 30.646,30.248 30.646,74.426 0,44.178 -30.646,74.824 z m -113.43,-35.422 q 15.522,15.522 38.606,15.522 23.084,0 38.606,-15.522 15.522,-15.522 15.522,-39.402 0,-23.88 -15.522,-39.402 -15.522,-15.522 -38.606,-15.522 -23.084,0 -38.606,15.522 -15.124,15.522 -15.124,39.402 0,23.88 15.124,39.402 z" style="font-weight:700;font-size:398px;font-family:Gilroy-Bold, Gilroy-Bold_MSFontService, sans-serif;fill:#343f55" id="path70" />
				<path d="m 1923.9273,0 v -290.54 h 51.342 V 0 Z" style="font-weight:700;font-size:398px;font-family:Gilroy-Bold, Gilroy-Bold_MSFontService, sans-serif;fill:#343f55" id="path72" />
				<path d="m 2191.7812,-24.676 q -30.646,30.248 -74.824,30.248 -44.178,0 -74.824,-30.248 -30.248,-30.646 -30.248,-74.824 0,-44.178 30.248,-74.426 30.646,-30.646 74.824,-30.646 44.178,0 74.824,30.646 30.646,30.248 30.646,74.426 0,44.178 -30.646,74.824 z m -113.43,-35.422 q 15.522,15.522 38.606,15.522 23.084,0 38.606,-15.522 15.522,-15.522 15.522,-39.402 0,-23.88 -15.522,-39.402 -15.522,-15.522 -38.606,-15.522 -23.084,0 -38.606,15.522 -15.124,15.522 -15.124,39.402 0,23.88 15.124,39.402 z" style="font-weight:700;font-size:398px;font-family:Gilroy-Bold, Gilroy-Bold_MSFontService, sans-serif;fill:#343f55" id="path74" />
				<path d="m 2411.0791,-199 h 50.148 V -9.552 q 0,46.168 -30.646,70.446 -30.248,24.278 -73.232,24.278 -32.238,0 -56.914,-12.338 -24.278,-12.338 -37.412,-36.218 l 43.78,-25.074 q 15.124,27.86 52.138,27.86 24.278,0 38.208,-12.736 13.93,-12.736 13.93,-36.218 v -21.492 q -22.686,30.248 -63.68,30.248 -42.188,0 -70.844,-29.452 -28.258,-29.85 -28.258,-72.436 0,-42.188 28.656,-72.038 28.656,-29.85 70.446,-29.85 40.994,0 63.68,30.248 z m -95.918,135.718 q 15.92,15.124 40.198,15.124 24.278,0 39.8,-15.124 15.92,-15.522 15.92,-39.402 0,-23.482 -15.92,-38.606 -15.522,-15.522 -39.8,-15.522 -24.278,0 -40.198,15.522 -15.522,15.124 -15.522,38.606 0,23.88 15.522,39.402 z" style="font-weight:700;font-size:398px;font-family:Gilroy-Bold, Gilroy-Bold_MSFontService, sans-serif;fill:#343f55" id="path76" />
				<path d="m 2637.541,-199 h 54.924 L 2620.029,0 q -15.522,42.984 -41.392,62.088 -25.472,19.502 -63.68,17.512 V 31.84 q 20.696,0.398 32.636,-8.756 12.338,-9.154 19.502,-29.452 L 2485.505,-199 h 56.118 l 51.74,133.728 z" style="font-weight:700;font-size:398px;font-family:Gilroy-Bold, Gilroy-Bold_MSFontService, sans-serif;fill:#343f55" id="path78" />
			</g>
			<path d="m 603.5,203.5 c 0,-33.137 26.863,-60 60,-60 33.137,0 60,26.863 60,60 0,33.137 -26.863,60 -60,60 -33.137,0 -60,-26.863 -60,-60 z" stroke="#1a759f" stroke-width="15" stroke-miterlimit="8" fill="#ffffff" fill-rule="evenodd" id="path31" />
			<path d="m 192.5,651.5 c 0,-33.137 26.863,-60 60,-60 33.137,0 60,26.863 60,60 0,33.137 -26.863,60 -60,60 -33.137,0 -60,-26.863 -60,-60 z" stroke="#1a759f" stroke-width="15" stroke-miterlimit="8" fill="#ffffff" fill-rule="evenodd" id="path33" />
		</g>
	</g>
</svg>
